<?xml version="1.0" encoding="utf-8"?>
<!-- Generator: Adobe Illustrator 23.0.2, SVG Export Plug-In . SVG Version: 6.00 Build 0)  -->
<svg version="1.1" id="Layer_1" xmlns="http://www.w3.org/2000/svg" xmlns:xlink="http://www.w3.org/1999/xlink" x="0px" y="0px"
	 viewBox="0 0 523 236.6" style="enable-background:new 0 0 523 236.6;" xml:space="preserve">
<style type="text/css">
	.st0{fill:#fff;}
</style>
<g>
	<g>
		<g>
			<path class="st0" d="M202,87.8v111.5c0,6.2-5,11.1-11.1,11.1H64.2c-1.5,0-2.9,0.4-4.2,1.2l-36.6,23c-2,1.3-4.3,1.9-6.6,1.9
				c-2.3,0-4.6-0.6-6.6-1.9c-3.8-2.3-5.9-6.6-5.9-11V72.9L3.7,73L0.1,44.8c-0.9-7,3.8-13.4,10.7-14.6L58,21.9c2-0.4,3.9,0.4,5.1,2
				l22.6,30.5c1.2,1.6,0.3,3.8-1.6,4.1l-51.5,9.3c-5,0.9-8.6,5.2-8.6,10.3v132.9l31-19.5c0.8-0.5,1.8-0.8,2.8-0.8h121.9
				c1.4,0,2.6-1.2,2.6-2.6V98.9c0-1.5-1.2-2.6-2.6-2.6H45.6c-2.9,0-5.2-2.3-5.2-5.2v-9.2c0-2.9,2.4-5.2,5.2-5.2h145.2
				C197,76.6,202,81.6,202,87.8z"/>
		</g>
		<path class="st0" d="M139.3,8.3l25.1,33.8c0.6,0.8,0.1,1.9-0.8,2.1l-17.3,3.1c-0.5,0.1-1-0.1-1.3-0.5l-25.2-33.9
			c-0.6-0.8-0.1-1.9,0.8-2.1l17.3-3C138.5,7.7,139,7.9,139.3,8.3z"/>
		<path class="st0" d="M100.3,15.2L125.4,49c0.6,0.8,0.1,1.9-0.8,2.1l-17.3,3.1c-0.5,0.1-1-0.1-1.3-0.5L80.9,19.8
			c-0.6-0.8-0.1-1.9,0.8-2.1l17.3-3C99.5,14.6,100,14.8,100.3,15.2z"/>
		<path class="st0" d="M201.6,37.4l-14.1,2.5c-1,0.2-2-0.2-2.6-1L160.4,5.8c-0.6-0.8-0.1-1.9,0.8-2.1l20.7-3.6
			c3.5-0.6,7.1,1.2,8.5,4.5l13.1,29.1C204.2,35.3,203.3,37.1,201.6,37.4z"/>
		<path class="st0" d="M128.8,142.8l-27.1-16.5c-2.3-1.4-5.4,0.3-5.4,3v33c0,2.7,3,4.4,5.4,3l27.1-16.5
			C131.1,147.5,131.1,144.2,128.8,142.8z"/>
	</g>
	<g>
		<path class="st0" d="M275.5,139.3h-9.2c-1.2,0-2.1-0.6-2.6-1.7l-6.7-13.1c-0.4-0.7-1-1.1-1.8-1.1h-8.6c1.1,0,2,0.4,2.6,1.1
			c0.6,0.8,1,1.5,1,2.3v10.8c0,0.5-0.2,0.9-0.5,1.1c-0.3,0.3-0.7,0.5-1.2,0.5h-9c-0.4,0-0.8-0.2-1.1-0.5s-0.5-0.7-0.5-1.1V99.3
			c0-1.6,0.6-3,1.7-4c1.1-1.1,2.5-1.6,4-1.6h13.9c2.4,0,4.8,0.3,7,0.8c2.2,0.5,4.2,1.4,5.8,2.6s3,2.7,4,4.6c1,1.9,1.5,4.2,1.5,7
			c0,2.6-0.6,5-1.8,7.1c-1.2,2.1-2.9,3.8-5.2,5.1c-0.3,0.2-0.5,0.5-0.6,0.8c0,0.3,0,0.5,0.2,0.7l8.3,15c0.1,0.3,0.2,0.5,0.2,0.7
			c0,0.3-0.1,0.7-0.4,0.9C276.2,139.1,275.9,139.3,275.5,139.3z M263.2,108.5c0-1.8-0.5-3.2-1.6-4.1c-1.1-0.9-2.5-1.4-4.2-1.4h-11.3
			c1.1,0,2,0.4,2.6,1.1c0.7,0.7,1,1.5,1,2.4v5.3c0,0.5,0.2,1,0.6,1.4c0.4,0.4,0.8,0.6,1.4,0.6h5.7c1.7,0,3.1-0.4,4.2-1.3
			C262.7,111.6,263.2,110.3,263.2,108.5z"/>
		<path class="st0" d="M283,137.6V99.3c0-1.7,0.6-3,1.7-4.1c1.1-1.1,2.5-1.6,4-1.6h26.8c0.4,0,0.8,0.2,1.2,0.5c0.3,0.4,0.5,0.7,0.5,1.2v6.5
			c0,0.5-0.2,0.9-0.5,1.1c-0.3,0.3-0.7,0.5-1.2,0.5h-24.3c1,0,1.9,0.4,2.6,1.1c0.7,0.7,1,1.6,1,2.4v2.8c0,0.5,0.2,0.9,0.5,1.4
			c0.3,0.4,0.9,0.7,1.5,0.7h14.2c1.1,0,1.7,0.6,1.7,1.7v5.9c0,1.1-0.6,1.7-1.7,1.7h-19.9c1,0,1.9,0.4,2.6,1c0.7,0.7,1,1.5,1,2.4v3.1
			c0,0.5,0.2,0.9,0.6,1.4c0.4,0.4,0.9,0.7,1.5,0.7H316c0.5,0,0.9,0.2,1.2,0.5s0.5,0.7,0.5,1.2v6.4c0,0.5-0.2,0.9-0.5,1.2
			c-0.4,0.3-0.7,0.5-1.2,0.5h-31.4c-0.5,0-0.9-0.2-1.2-0.5C283.1,138.5,283,138.1,283,137.6z"/>
		<path class="st0" d="M362.1,93.5c0.4,0,0.7,0.1,1,0.4c0.3,0.3,0.4,0.6,0.4,1c0,0.3,0,0.5-0.1,0.6l-13.2,41.8c-0.1,0.6-0.4,1.1-0.9,1.4
			c-0.4,0.4-1.1,0.6-1.8,0.6H337c-0.8,0-1.4-0.2-1.8-0.6c-0.4-0.3-0.8-0.8-1-1.4L321,95.5l-0.1-0.6c0-0.3,0.1-0.7,0.4-1
			c0.3-0.3,0.7-0.4,1-0.4h8.5c0.6,0,1.2,0.2,1.6,0.5c0.4,0.4,0.7,0.8,0.8,1.2l8.6,28.5c0,0.1,0.1,0.2,0.3,0.2c0.2,0,0.3-0.1,0.3-0.2
			l8.7-28.5c0.1-0.5,0.4-0.9,0.8-1.2c0.5-0.3,1-0.5,1.6-0.5H362.1z"/>
		<path class="st0" d="M369.4,137.8V99.4c0-1.7,0.6-3,1.7-4.1c1.1-1.1,2.5-1.6,4-1.6h5.2c0.5,0,0.9,0.2,1.2,0.5c0.3,0.3,0.5,0.7,0.5,1.2v42.4
			c0,0.5-0.2,0.9-0.5,1.2c-0.3,0.3-0.7,0.5-1.2,0.5h-9.3c-0.5,0-0.9-0.2-1.2-0.5C369.6,138.6,369.4,138.3,369.4,137.8z"/>
		<path class="st0" d="M391.1,137.6V99.3c0-1.7,0.6-3,1.7-4.1c1.1-1.1,2.5-1.6,4-1.6h26.8c0.4,0,0.8,0.2,1.2,0.5c0.3,0.4,0.5,0.7,0.5,1.2v6.5
			c0,0.5-0.2,0.9-0.5,1.1c-0.3,0.3-0.7,0.5-1.2,0.5h-24.3c1,0,1.9,0.4,2.6,1.1c0.7,0.7,1,1.6,1,2.4v2.8c0,0.5,0.2,0.9,0.5,1.4
			c0.3,0.4,0.9,0.7,1.5,0.7h14.2c1.1,0,1.7,0.6,1.7,1.7v5.9c0,1.1-0.6,1.7-1.7,1.7h-19.9c1,0,1.9,0.4,2.6,1c0.7,0.7,1,1.5,1,2.4v3.1
			c0,0.5,0.2,0.9,0.6,1.4c0.4,0.4,0.9,0.7,1.5,0.7h19.2c0.5,0,0.9,0.2,1.2,0.5s0.5,0.7,0.5,1.2v6.4c0,0.5-0.2,0.9-0.5,1.2
			c-0.4,0.3-0.7,0.5-1.2,0.5h-31.4c-0.5,0-0.9-0.2-1.2-0.5C391.2,138.5,391.1,138.1,391.1,137.6z"/>
		<path class="st0" d="M479.7,93.9c0.3,0.3,0.4,0.6,0.4,1v0.4l-7,41.8c0,0.6-0.3,1.1-0.9,1.5c-0.4,0.4-1,0.7-1.8,0.7h-6.6
			c-0.6,0-1.1-0.1-1.5-0.4c-0.4-0.3-0.7-0.7-0.9-1.3l-6.2-17.2c0-0.1-0.2-0.2-0.3-0.2c-0.1,0-0.2,0.1-0.3,0.2l-6.1,17.2
			c-0.5,1.1-1.3,1.7-2.5,1.7h-6.6c-0.7,0-1.3-0.2-1.8-0.7c-0.4-0.4-0.7-0.9-0.8-1.5l-7-41.8c0-0.3,0-0.6,0-0.8
			c0.1-0.2,0.2-0.4,0.3-0.6c0.3-0.3,0.7-0.4,1-0.4h8.5c1.3,0,2,0.5,2.1,1.5l3.7,23.2c0.1,0.2,0.2,0.3,0.4,0.3c0.2,0,0.3-0.1,0.3-0.3
			l4.1-12.9c0.3-1.2,1.1-1.8,2.1-1.8h4.9c1.1,0,1.9,0.6,2.2,1.8l4.1,12.9c0,0.2,0.2,0.3,0.3,0.3c0.2,0,0.3-0.1,0.3-0.3l3.8-23.2
			c0.1-0.5,0.3-0.9,0.6-1.2c0.3-0.2,0.8-0.3,1.4-0.3h8.6C479.1,93.5,479.4,93.6,479.7,93.9z"/>
		<path class="st0" d="M523,125.5c0,2.7-0.6,4.9-1.8,6.8c-1.2,1.9-2.8,3.3-4.7,4.5c-1.9,1.1-4.1,1.9-6.4,2.4c-2.4,0.5-4.7,0.8-6.9,0.8
			c-1.5,0-3.1-0.1-4.8-0.3c-1.7-0.2-3.3-0.6-4.8-1.1c-1.6-0.5-3-1.2-4.4-2.1c-1.4-0.9-2.5-1.9-3.5-3.2c-1.6-2-2.4-4.2-2.4-6.5
			c0-0.4,0.1-0.7,0.4-1c0.3-0.3,0.7-0.4,1-0.4h8.7c0.6,0,1,0.1,1.3,0.3c0.3,0.2,0.7,0.5,1,0.9c0.8,1.4,1.8,2.4,3.2,2.9
			c1.3,0.5,2.8,0.8,4.3,0.8c0.7,0,1.4-0.1,2.2-0.2c0.8-0.1,1.6-0.3,2.4-0.6c0.7-0.3,1.4-0.7,1.9-1.2c0.5-0.5,0.8-1.2,0.8-2.1
			c0-1.1-0.5-2-1.4-2.5c-0.9-0.5-1.8-1-2.8-1.3c-0.7-0.2-1.6-0.5-2.6-0.7c-1-0.3-2.2-0.5-3.6-0.9c-2-0.4-4-0.9-5.8-1.5
			c-1.9-0.6-3.6-1.4-5-2.5c-1.5-1-2.6-2.4-3.5-4c-0.9-1.6-1.3-3.6-1.3-5.9c0-2.5,0.6-4.6,1.7-6.4c1.1-1.8,2.5-3.2,4.3-4.3
			c1.7-1.1,3.7-1.9,5.9-2.4c2.2-0.5,4.3-0.8,6.5-0.8c1.5,0,3,0.1,4.6,0.4c1.6,0.3,3.1,0.7,4.5,1.2c1.4,0.6,2.8,1.3,4,2.2
			c1.2,0.9,2.4,1.9,3.3,3.1c1.5,2,2.3,3.9,2.4,5.8c0,0.4-0.1,0.7-0.4,1c-0.3,0.3-0.6,0.4-1,0.4h-9.1c-1,0-1.7-0.4-2.2-1.2
			c-0.2-0.6-0.5-1.1-0.9-1.5c-0.4-0.4-1-0.7-1.5-1c-0.6-0.2-1.2-0.4-1.8-0.5c-0.6-0.1-1.2-0.2-1.8-0.2c-0.7,0-1.3,0-2,0.1
			c-0.7,0.1-1.3,0.3-1.8,0.6c-0.5,0.3-1,0.7-1.4,1.2c-0.4,0.5-0.6,1.1-0.6,1.9c0,1.3,0.7,2.3,2,3c1.3,0.7,3.7,1.4,7.3,2.2
			c2.1,0.4,4.2,0.8,6.2,1.4c2,0.6,3.8,1.4,5.4,2.4c1.6,1,2.8,2.3,3.8,3.9C522.5,121,523,123,523,125.5z"/>
		<path class="st0" d="M264.8,192.5l3.4,3.5c0.2,0.2,0.3,0.4,0.3,0.7c0,0.3-0.1,0.5-0.2,0.6c-0.2,0.2-0.4,0.2-0.6,0.2h-6.9
			c-0.5,0-0.9-0.2-1.3-0.5l-2-1.9c-1.5,1.1-2.9,1.9-4.5,2.3c-1.5,0.4-3.2,0.6-5,0.6c-1.6,0-3.1-0.2-4.6-0.5c-1.5-0.4-2.8-0.9-4-1.7
			c-1.1-0.8-2.1-1.8-2.8-3.1c-0.7-1.3-1.1-2.8-1.1-4.6c0-2.2,0.6-4,1.9-5.5c1.2-1.5,2.8-2.7,4.6-3.7c0.3-0.2,0.6-0.3,0.8-0.4
			c0.3-0.1,0.5-0.2,0.7-0.4c0.2-0.1,0.4-0.2,0.5-0.3c-0.1,0.1-0.3,0.1-0.4,0.1c-0.2,0-0.3,0-0.5,0c-0.8,0-1.5-0.3-2.2-0.8
			c-0.7-0.6-1.2-1.2-1.5-2c-0.6-1.1-0.8-2.3-0.8-3.4c0-1.5,0.3-2.8,0.9-3.9c0.6-1.1,1.4-2,2.5-2.6c1-0.7,2.1-1.2,3.4-1.5
			c1.3-0.3,2.6-0.5,3.9-0.5c1.3,0,2.5,0.2,3.8,0.5c1.2,0.4,2.3,0.9,3.3,1.6c1,0.7,1.7,1.6,2.3,2.6c0.6,1.1,0.8,2.3,0.8,3.6
			c0,1.1-0.2,2-0.5,2.9c-0.4,0.9-0.8,1.6-1.5,2.3c-0.6,0.7-1.3,1.3-2.1,1.9c-0.8,0.6-1.6,1.1-2.5,1.5l-2.4,1.4
			c0.3-0.1,0.5-0.2,0.8-0.3c0.3-0.1,0.6-0.1,1-0.1c0.4,0,0.8,0.1,1.2,0.2c0.4,0.1,0.8,0.4,1.1,0.7l3.3,3.3c0.3-0.4,0.5-0.8,0.7-1.2
			c0.2-0.4,0.4-0.8,0.6-1.2c0.3-0.6,0.7-1.1,1.2-1.6c0.5-0.4,1-0.8,1.5-1c0.5-0.3,1-0.4,1.5-0.6c0.5-0.1,0.9-0.2,1.2-0.2
			c0.4,0,0.7,0,0.9,0c0.3,0,0.5,0,0.7,0c0.2,0,0.4,0,0.6,0c0.2,0,0.4,0.1,0.6,0.3c0.2,0.2,0.3,0.4,0.3,0.6c0,0.7-0.2,1.5-0.5,2.4
			c-0.4,0.9-0.8,1.8-1.3,2.6c-0.5,0.9-1,1.7-1.6,2.5c-0.6,0.8-1.1,1.5-1.5,2c0,0-0.1,0.1-0.2,0.3c-0.2,0.2-0.3,0.3-0.6,0.6
			c-0.2,0.2-0.4,0.4-0.7,0.6c-0.2,0.2-0.4,0.4-0.6,0.5c0.6-0.5,1.2-0.8,1.8-0.8c0.5,0,0.9,0.1,1.3,0.3
			C264.3,192,264.6,192.2,264.8,192.5z M252.9,190.5c0.3-0.2,0.5-0.4,0.7-0.6c0.2-0.2,0.4-0.4,0.6-0.6c0.2-0.2,0.4-0.4,0.5-0.6
			c-0.3,0.3-0.8,0.4-1.5,0.4c-0.4,0-0.7-0.1-1.1-0.2c-0.4-0.1-0.8-0.4-1.1-0.7c-0.1-0.1-0.3-0.3-0.8-0.8s-1-1-1.6-1.6
			c-0.6-0.6-1.4-1.3-2.2-2.1c-2,1.1-3,2.4-3,3.9c0,0.6,0.1,1.2,0.4,1.8c0.3,0.5,0.7,1,1.1,1.4c0.5,0.4,1,0.7,1.6,0.9
			c0.6,0.2,1.2,0.3,1.7,0.3c0.9,0,1.8-0.1,2.5-0.3C251.6,191.5,252.3,191.1,252.9,190.5z M247,169.8c-0.5,0.6-0.8,1.2-0.8,2
			c0,0.8,0.2,1.5,0.7,2.1c0.5,0.6,1,1.2,1.5,1.7c0.4-0.2,0.8-0.4,1.2-0.6c0.4-0.2,0.8-0.5,1.2-0.8c0.4-0.3,0.7-0.7,0.9-1.1
			c0.2-0.4,0.4-0.8,0.4-1.3c0-0.9-0.3-1.6-0.9-2c-0.6-0.5-1.3-0.7-2.1-0.7C248.4,169.1,247.7,169.3,247,169.8z"/>
		<path class="st0" d="M305.4,163.8c0.3,0,0.6,0.1,0.9,0.4c0.3,0.3,0.4,0.6,0.4,0.9v31.4c0,0.4-0.1,0.6-0.4,0.9c-0.3,0.2-0.5,0.3-0.9,0.3h-6.1
			c-0.4,0-0.6-0.1-0.9-0.3c-0.2-0.2-0.3-0.5-0.3-0.9v-16.6c0-0.2-0.1-0.3-0.3-0.3c-0.1,0-0.1,0-0.2,0.1l-4.8,8.7
			c-0.4,0.7-1,1.1-1.7,1.1h-2.6c-0.6,0-1.2-0.4-1.7-1.1l-4.7-8.7c0-0.1-0.1-0.1-0.2-0.1c-0.2,0-0.3,0.1-0.3,0.3v16.6
			c0,0.4-0.1,0.7-0.3,0.9c-0.2,0.2-0.5,0.3-0.9,0.3h-6.1c-0.4,0-0.7-0.1-0.9-0.3c-0.2-0.2-0.4-0.5-0.4-0.9v-28.6
			c0-0.7,0.2-1.3,0.5-1.8c0.3-0.5,0.7-0.9,1.1-1.3c0.4-0.3,0.9-0.6,1.3-0.8c0.5-0.2,0.8-0.2,1.1-0.2h2.7c0.8,0,1.4,0.4,1.7,1.1
			l8.1,14.5c0.1,0.1,0.1,0.1,0.2,0.1c0.1,0,0.2,0,0.2-0.1l8.2-14.5c0.3-0.7,0.9-1.1,1.7-1.1H305.4z"/>
		<path class="st0" d="M327.3,198.1c-4.6,0-8.2-1.1-10.9-3.3c-2.7-2.2-4.1-5.5-4.2-9.9c0-0.9,0-2.3,0-4.2c0-1.9,0-3.3,0-4.2
			c0.1-4.3,1.5-7.6,4.2-9.9c2.7-2.3,6.3-3.5,10.8-3.5c4.5,0,8.1,1.2,10.8,3.5c2.7,2.3,4.1,5.6,4.2,9.9c0.1,1.9,0.1,3.3,0.1,4.2
			c0,1,0,2.4-0.1,4.2c-0.2,4.3-1.6,7.6-4.2,9.9C335.5,197,331.9,198.1,327.3,198.1z M327.3,190.9c1.7,0,3-0.5,4-1.5
			c1-1,1.5-2.6,1.6-4.7c0.1-1.9,0.1-3.2,0.1-4c0-0.8,0-2.1-0.1-3.9c-0.1-2.1-0.6-3.7-1.6-4.7c-1-1-2.3-1.5-4-1.5
			c-1.7,0-3.1,0.5-4.1,1.5c-1,1-1.5,2.6-1.6,4.7c0,0.9,0,2.2,0,3.9c0,1.7,0,3.1,0,4c0.1,2.1,0.6,3.7,1.6,4.7
			C324.2,190.3,325.6,190.9,327.3,190.9z"/>
		<path class="st0" d="M376.6,197.3c-0.2,0.2-0.4,0.3-0.7,0.3H369c-0.9,0-1.6-0.4-2-1.3l-4.9-9.7c-0.3-0.5-0.7-0.8-1.3-0.8h-6.4
			c0.8,0,1.5,0.3,2,0.9c0.5,0.6,0.7,1.1,0.7,1.7v8c0,0.4-0.1,0.7-0.3,0.9c-0.2,0.2-0.5,0.3-0.9,0.3h-6.6c-0.4,0-0.6-0.1-0.9-0.3
			c-0.2-0.2-0.3-0.5-0.3-0.9v-28.4c0-1.2,0.4-2.2,1.3-3c0.8-0.8,1.8-1.2,3-1.2h10.3c1.8,0,3.5,0.2,5.2,0.6c1.6,0.4,3.1,1,4.3,1.9
			c1.2,0.9,2.2,2,3,3.4c0.7,1.4,1.1,3.1,1.1,5.1c0,2-0.4,3.8-1.2,5.3c-0.8,1.5-2.1,2.8-3.9,3.7c-0.3,0.2-0.4,0.4-0.4,0.6
			c0,0.2,0,0.4,0.1,0.5l6.1,11c0.1,0.2,0.1,0.4,0.1,0.5C376.9,196.8,376.8,197,376.6,197.3z M366.7,174.7c0-1.3-0.4-2.3-1.1-3
			c-0.8-0.7-1.8-1-3.1-1h-8.3c0.8,0,1.4,0.3,1.9,0.8s0.7,1.2,0.7,1.8v3.9c0,0.4,0.1,0.8,0.4,1.1c0.3,0.3,0.6,0.4,1.1,0.4h4.2
			c1.3,0,2.3-0.3,3.1-1C366.3,177.1,366.7,176.1,366.7,174.7z"/>
		<path class="st0" d="M381.6,196.3v-28.4c0-1.2,0.4-2.2,1.3-3c0.8-0.8,1.8-1.2,3-1.2h19.8c0.3,0,0.6,0.1,0.9,0.4c0.3,0.3,0.4,0.6,0.4,0.9v4.8
			c0,0.4-0.1,0.6-0.4,0.8c-0.2,0.2-0.5,0.3-0.9,0.3h-18c0.8,0,1.4,0.3,1.9,0.8c0.5,0.6,0.8,1.1,0.8,1.8v2c0,0.4,0.1,0.7,0.4,1
			c0.3,0.3,0.6,0.5,1.1,0.5h10.5c0.8,0,1.3,0.4,1.3,1.3v4.4c0,0.8-0.4,1.3-1.3,1.3h-14.7c0.7,0,1.4,0.3,1.9,0.8
			c0.5,0.5,0.8,1.1,0.8,1.7v2.3c0,0.4,0.1,0.7,0.4,1c0.3,0.3,0.6,0.5,1.1,0.5H406c0.4,0,0.7,0.1,0.9,0.4c0.2,0.2,0.4,0.5,0.4,0.9
			v4.8c0,0.4-0.1,0.6-0.4,0.9c-0.3,0.2-0.6,0.3-0.9,0.3h-23.2c-0.4,0-0.6-0.1-0.9-0.3C381.7,197,381.6,196.7,381.6,196.3z"/>
	</g>
</g>
</svg>
